Coordinates
version=1
nRows=14
nColumns=38
inDegrees=no

Units are S.I. units (second, meters, Newtons, ...)
If the header above contains a line with 'inDegrees', this indicates whether rotational values are in degrees (yes) or radians (no).

endheader
time	pelvis_tilt	pelvis_list	pelvis_rotation	pelvis_tx	pelvis_ty	pelvis_tz	hip_flexion_r	hip_adduction_r	hip_rotation_r	knee_angle_r	ankle_angle_r	subtalar_angle_r	mtp_angle_r	hip_flexion_l	hip_adduction_l	hip_rotation_l	knee_angle_l	ankle_angle_l	subtalar_angle_l	mtp_angle_l	lumbar_extension	lumbar_bending	lumbar_rotation	arm_flex_r	arm_add_r	arm_rot_r	elbow_flex_r	pro_sup_r	wrist_flex_r	wrist_dev_r	arm_flex_l	arm_add_l	arm_rot_l	elbow_flex_l	pro_sup_l	wrist_flex_l	wrist_dev_l
5	-2.80269	1.55235	-1.87467	0.680182	-0.237759	0.770878	0.835128	-0.177527	0.0779328	1.39558	0.381401	0	0	0.785087	-0.274539	-0.119552	1.38748	0.401071	0	0	-0.786633	-0.021125	0.0540096	0.524116	-0.322832	0.551302	0.435293	1.02093	0	0	0.478371	-0.266847	0.391902	0.578757	0.937445	0	0
5.01	-1.28104	1.54724	2.88739	0.677865	-0.2395	0.766189	0.879525	-0.199086	0.0939668	1.41152	0.378609	0	0	0.816202	-0.248304	-0.122836	1.39544	0.399227	0	0	-0.759817	-0.0310083	0.0404199	0.524768	-0.322974	0.564498	0.431125	1.01206	0	0	0.474947	-0.269302	0.398608	0.579137	0.935985	0	0
5.02	-2.84826	1.55108	-1.82666	0.679987	-0.238313	0.770661	0.834055	-0.17892	0.0761297	1.39648	0.381557	0	0	0.786046	-0.273097	-0.116918	1.38867	0.400661	0	0	-0.79132	-0.0183128	0.0508599	0.531875	-0.317772	0.564891	0.424246	1.01039	0	0	0.482375	-0.273193	0.403989	0.57798	0.936286	0	0
5.03	-1.27147	1.54784	2.87895	0.67788	-0.240036	0.765765	0.880627	-0.198874	0.0934001	1.41267	0.378761	0	0	0.818472	-0.248401	-0.121303	1.3968	0.399525	0	0	-0.762739	-0.029262	0.0385708	0.530892	-0.317298	0.564628	0.419153	1.0197	0	0	0.478392	-0.273665	0.406319	0.577768	0.939947	0	0
5.04	-1.18204	1.54673	2.78995	0.677879	-0.24032	0.765187	0.884934	-0.199625	0.0937694	1.41446	0.378377	0	0	0.822576	-0.247722	-0.120735	1.39834	0.3995	0	0	-0.76131	-0.0290359	0.0371582	0.533357	-0.315422	0.568221	0.412911	1.01723	0	0	0.478803	-0.275838	0.411485	0.578081	0.939418	0	0
5.05	-1.17084	1.547	2.77884	0.677947	-0.240573	0.764947	0.885905	-0.199605	0.0932816	1.41516	0.378299	0	0	0.823833	-0.248309	-0.120309	1.39931	0.399492	0	0	-0.762334	-0.0283438	0.0366679	0.536923	-0.314465	0.57724	0.405657	1.00198	0	0	0.479962	-0.278382	0.422674	0.579189	0.932091	0	0
5.06	-1.18164	1.54755	2.7897	0.678009	-0.240787	0.764802	0.886089	-0.19997	0.0922338	1.41561	0.378317	0	0	0.824248	-0.248929	-0.119876	1.40006	0.399698	0	0	-0.764246	-0.0276039	0.0364548	0.539366	-0.313539	0.57737	0.400513	0.999767	0	0	0.480948	-0.278608	0.425967	0.57936	0.933983	0	0
5.07	-1.21055	1.54819	2.81887	0.678031	-0.240989	0.764708	0.885774	-0.200776	0.0909358	1.41614	0.378534	0	0	0.824226	-0.249269	-0.119267	1.40086	0.399987	0	0	-0.766658	-0.0267035	0.0362133	0.541324	-0.313453	0.577544	0.397599	0.997712	0	0	0.482018	-0.278022	0.427968	0.578858	0.936616	0	0
5.08	-1.24765	1.54889	2.85627	0.678025	-0.24123	0.764639	0.88506	-0.201254	0.0900031	1.4165	0.378802	0	0	0.824012	-0.249435	-0.118546	1.40152	0.400097	0	0	-0.769266	-0.0257438	0.0360363	0.542798	-0.314059	0.577609	0.396668	0.996066	0	0	0.483306	-0.276444	0.428407	0.577013	0.940189	0	0
5.09	-1.28818	1.54969	2.89654	0.678099	-0.241469	0.764621	0.884128	-0.201229	0.0891499	1.41638	0.37897	0	0	0.823495	-0.250263	-0.118307	1.40201	0.400003	0	0	-0.77207	-0.025108	0.0365221	0.54374	-0.315197	0.576956	0.397594	0.994859	0	0	0.484941	-0.273742	0.426676	0.57367	0.944473	0	0
5.1	-1.34519	1.55029	2.95286	0.678225	-0.241667	0.76473	0.882875	-0.201212	0.0883825	1.41597	0.379074	0	0	0.822076	-0.251248	-0.118722	1.40189	0.400231	0	0	-0.775136	-0.024953	0.0374163	0.544302	-0.316679	0.576474	0.399763	0.993931	0	0	0.486718	-0.270714	0.423839	0.57025	0.948766	0	0
5.11	-1.40962	1.55064	3.01651	0.678326	-0.24183	0.764894	0.881727	-0.201311	0.0878694	1.41592	0.378935	0	0	0.820371	-0.251901	-0.119237	1.40158	0.400286	0	0	-0.778043	-0.0249859	0.0382428	0.544619	-0.318309	0.576742	0.402775	0.992823	0	0	0.48828	-0.267845	0.420157	0.567311	0.953398	0	0
5.12	-1.45509	1.55092	3.0617	0.678393	-0.242021	0.76502	0.881065	-0.201667	0.0870889	1.41592	0.378386	0	0	0.819348	-0.252009	-0.119103	1.40115	0.400151	0	0	-0.780315	-0.0247708	0.0383606	0.545156	-0.31945	0.578108	0.405912	0.991438	0	0	0.489483	-0.265278	0.41564	0.564172	0.95833	0	0
5.13	-1.50269	1.55097	3.10899	0.678505	-0.242178	0.765158	0.880559	-0.202079	0.086447	1.416	0.377779	0	0	0.818288	-0.25195	-0.119029	1.40073	0.399629	0	0	-0.782293	-0.0250393	0.0383863	0.545353	-0.319907	0.577166	0.408839	0.995875	0	0	0.490621	-0.264885	0.419213	0.5634	0.943873	0	0
